<svg id="Capa_1" enable-background="new 0 0 512 512" height="512" viewBox="0 0 512 512" width="512" xmlns="http://www.w3.org/2000/svg"><g><g><g><g><g><g><g><g><ellipse cx="256" cy="181.31" fill="#a4fcc4" rx="107.955" ry="107.588"/></g></g></g></g></g></g></g><g><g><g><g><g><g><g><path d="m225.846 234.376c-5.523 0-10-4.477-10-10v-87.147c0-5.523 4.477-10 10-10s10 4.477 10 10v87.147c0 5.523-4.477 10-10 10z" fill="#020288"/></g></g></g></g></g></g><g><g><g><g><g><g><path d="m286.154 234.376c-5.523 0-10-4.477-10-10v-87.147c0-5.523 4.477-10 10-10s10 4.477 10 10v87.147c0 5.523-4.478 10-10 10z" fill="#020288"/></g></g></g></g></g></g><g><g><g><g><g><g><path d="m286.154 189.308h-60.308c-5.523 0-10-4.477-10-10s4.477-10 10-10h60.308c5.523 0 10 4.477 10 10s-4.478 10-10 10z" fill="#020288"/></g></g></g></g></g></g><path d="m440.212 180.175c-.9-47.705-20.033-92.566-53.874-126.329l-.08-.082c-.045-.047-.091-.094-.138-.14-34.776-34.58-80.988-53.624-130.124-53.624-49.198 0-95.459 19.099-130.262 53.778-34.809 34.674-53.979 80.797-53.979 129.872 0 42.445 14.833 83.806 41.766 116.463.159.193.325.379.497.559l111.524 116.298c-3.989 3.47-7.402 7.627-10.033 12.329h-10.235c-22.815 0-41.377 18.55-41.377 41.351s18.561 41.35 41.377 41.35h101.452c22.815 0 41.377-18.55 41.377-41.351s-18.562-41.351-41.377-41.351h-10.236c-2.596-4.639-5.953-8.749-9.874-12.191l93.581-96.349c.166-.17.325-.347.478-.529 3.641-4.326 7.493-8.539 10.781-12.088 32.34-34.914 49.655-80.361 48.756-127.966zm-150.093 269.124h16.606c11.787 0 21.377 9.578 21.377 21.351s-9.589 21.35-21.376 21.35h-101.452c-11.787 0-21.377-9.578-21.377-21.351s9.59-21.351 21.377-21.351h16.606c4.19 0 7.936-2.612 9.384-6.544 3.795-10.306 13.736-17.23 24.736-17.23s20.94 6.924 24.736 17.23c1.447 3.933 5.193 6.545 9.383 6.545zm86.664-154.748c-3.38 3.649-7.341 7.98-11.179 12.527l-97.258 100.134c-3.964-1.103-8.11-1.688-12.346-1.688-4.168 0-8.249.566-12.155 1.635l-115.129-120.056c-23.839-29.04-36.961-65.763-36.961-103.454 0-43.718 17.08-84.808 48.095-115.703 31.029-30.918 72.277-47.946 116.146-47.946 43.783 0 84.959 16.953 115.954 47.738l.073.076c.043.044.086.088.13.132 62.549 62.34 64.583 161.877 4.63 226.605z" fill="#020288"/></g></g></svg>