<svg height="392pt" viewBox="0 -2 392.01918 392" width="392pt" xmlns="http://www.w3.org/2000/svg" xmlns:xlink="http://www.w3.org/1999/xlink"><linearGradient id="lg1"><stop offset=".322" stop-color="#a163f5"/><stop offset=".466" stop-color="#b074ee"/><stop offset=".752" stop-color="#d8a1dd"/><stop offset=".898" stop-color="#efbad3"/></linearGradient><linearGradient id="linear0" gradientUnits="userSpaceOnUse" x1="162.718721" x2="162.718721" xlink:href="#lg1" y1="419.70259" y2="-44.91741"/><linearGradient id="linear1" gradientUnits="userSpaceOnUse" x1="289.778721" x2="289.778721" xlink:href="#lg1" y1="419.70259" y2="-44.91741"/><linearGradient id="linear2" gradientUnits="userSpaceOnUse" x1="231.594721" x2="231.594721" xlink:href="#lg1" y1="419.70259" y2="-44.91741"/><linearGradient id="linear3" gradientUnits="userSpaceOnUse" x1="358.886721" x2="358.886721" xlink:href="#lg1" y1="419.70259" y2="-44.91741"/><linearGradient id="linear4" gradientUnits="userSpaceOnUse" x1="112.318721" x2="112.318721" xlink:href="#lg1" y1="419.70259" y2="-44.91741"/><path d="m276.398438 137.703125 25.921874-62.324219c.980469-2.359375.359376-5.085937-1.550781-6.785156-1.910156-1.699219-4.6875-2.003906-6.917969-.753906l-57.269531 32.023437-48.871093-44.59375c-1.898438-1.730469-4.683594-2.0625-6.933594-.824219-2.25 1.234376-3.464844 3.765626-3.019532 6.292969l11.726563 66.757813-56.179687 34.550781c-2.15625 1.324219-3.246094 3.859375-2.730469 6.339844.519531 2.476562 2.535156 4.363281 5.042969 4.710937l57.683593 8.058594-191.621093 196.046875c-2.289063 2.375-2.230469 6.148437.125 8.453125 2.359374 2.304688 6.136718 2.273438 8.457031-.066406l191.558593-195.980469 12.695313 58.601563c.542969 2.519531 2.636719 4.40625 5.199219 4.691406.21875.027344.441406.039062.660156.039062 2.335938 0 4.460938-1.359375 5.445312-3.480468l28.25-60.972657 64.816407 6.28125c2.523437.242188 4.933593-1.128906 6.011719-3.425781 1.074218-2.296875.589843-5.027344-1.210938-6.8125zm-25.402344 38.433594c-2.535156-.253907-4.953125 1.132812-6.019532 3.449219l-22.523437 48.597656-11.414063-52.699219c-.53125-2.457031-2.542968-4.324219-5.035156-4.671875l-52.199218-7.292969 45.433593-27.941406c2.097657-1.289063 3.191407-3.726563 2.765625-6.152344l-9.386718-53.433593 39.070312 35.648437c1.910156 1.742187 4.71875 2.066406 6.972656.804687l45.921875-25.679687-20.8125 50.058594c-.9375 2.253906-.414062 4.847656 1.316407 6.566406l38.183593 37.8125zm0 0" fill="url(#linear0)"/><path d="m283.257812 232.347656c-1.160156-1.8125-3.207031-2.867187-5.355468-2.753906-2.152344.109375-4.078125 1.363281-5.050782 3.285156-.96875 1.925782-.835937 4.21875.351563 6.015625l23.09375 35.449219c1.808594 2.777344 5.527344 3.5625 8.300781 1.753906 2.777344-1.808594 3.5625-5.527344 1.753906-8.304687zm0 0" fill="url(#linear1)"/><path d="m231.59375 53.570312c3.316406 0 6-2.683593 6-6v-41.5625c0-3.3125-2.683594-5.9999995-6-5.9999995-3.3125 0-6 2.6874995-6 5.9999995v41.5625c0 3.316407 2.6875 6 6 6zm0 0" fill="url(#linear2)"/><path d="m384.445312 103.679688-54.164062 14.230468c-2.089844.53125-3.734375 2.140625-4.308594 4.21875-.574218 2.078125.011719 4.304688 1.53125 5.832032 1.519532 1.527343 3.746094 2.121093 5.824219 1.558593l54.164063-14.230469c2.089843-.53125 3.734374-2.140624 4.308593-4.21875.574219-2.078124-.007812-4.304687-1.53125-5.832031-1.519531-1.527343-3.742187-2.121093-5.824219-1.558593zm0 0" fill="url(#linear3)"/><path d="m91.246094 103.453125 40.109375 6.910156c.335937.058594.679687.089844 1.023437.089844 3.117188.003906 5.71875-2.386719 5.984375-5.492187.261719-3.109376-1.898437-5.898438-4.972656-6.421876l-40.105469-6.910156c-3.265625-.5625-6.371094 1.628906-6.933594 4.894532-.5625 3.265624 1.628907 6.367187 4.894532 6.929687zm0 0" fill="url(#linear4)"/></svg>